# xmcd CD database file
#
# Track frame offsets:
#	187
#	21485
#	41150
#	58585
#	80412
#	98537
#	121980
#	143825
#	165157
#	185812
#
# Disc length: 2790 seconds
#
# Revision: 0
# Processed by: cddbd v1.5.1PL0 Copyright (c) Steve Scherf et al.
# Submitted via: CDex 1.51
#
DISCID=800ae40a
DTITLE=石原慎一 - POSITIVE GROOVER
DYEAR=1900
DGENRE=JPop
TTITLE0=BYE-BYE LOVE CRUISING
TTITLE1=SUPERSTITION
TTITLE2=この日をつかめ
TTITLE3=ビコーズ
TTITLE4=Love is fantasy
TTITLE5=熱に抱かれて
TTITLE6=君だけがいない
TTITLE7=Rainy daysを閉じ込めて
TTITLE8=RHAPSODY IN THE RAIN
TTITLE9=Promissiond Life(約束)
EXTD=
EXTT0=
EXTT1=
EXTT2=
EXTT3=
EXTT4=
EXTT5=
EXTT6=
EXTT7=
EXTT8=
EXTT9=
PLAYORDER=
